<?xml version="1.0" encoding="UTF-8"?>
<svg version="1.1" xmlns="http://www.w3.org/2000/svg" width="512" height="512">
<path d="M0 0 C79.53 0 159.06 0 241 0 C241 129.36 241 258.72 241 392 C161.47 392 81.94 392 0 392 C0 262.64 0 133.28 0 0 Z M57.19140625 135.58203125 C48.15689448 145.55059237 45.1780707 156.814783 45.65234375 170.02734375 C46.43464766 178.96670417 49.42265005 186.02701992 54.92578125 193.0625 C56 195 56 195 55.8125 197.0625 C55 199 55 199 52.6875 202 C45.72685378 211.57088855 45.04201443 222.59878901 46 234 C47.90225918 245.63365117 54.89013362 255.72601509 64 263 C75.51151715 270.08284389 86.9669504 273.02269958 100.41015625 270.3125 C106.79580647 268.52003678 111.89147238 266.20119368 117.09765625 262.07421875 C119 261 119 261 121.03125 261.1875 C123.07424434 262.03064052 124.64543887 263.02333353 126.4375 264.3125 C136.71061078 270.85685205 148.49755416 272.67277456 160.35546875 270.33984375 C167.99348235 268.27140162 173.93089893 265.0397129 180 260 C180.64710938 259.47664062 181.29421875 258.95328125 181.9609375 258.4140625 C189.77597847 251.41806512 194.42139855 240.53954192 195.3359375 230.203125 C195.45357966 218.29773834 193.51613934 209.61291658 186.07421875 199.97265625 C185 198 185 198 185.15234375 196.03515625 C186.15952642 193.61698955 187.43990906 191.56690506 188.875 189.375 C195.41898941 178.55224828 196.70268997 167.07030445 194.37890625 154.69140625 C190.61310272 141.82072663 182.02897343 132.17724856 170.5 125.75 C158.98545936 120.27374788 147.32045642 119.99384395 135.34765625 123.85546875 C129.90942134 125.85902898 125.55676783 128.43383387 121 132 C118.28173507 130.69787309 115.81082433 129.24376229 113.3125 127.5625 C94.6858832 115.91227289 72.51814644 120.8949303 57.19140625 135.58203125 Z " fill="#ffffff" transform="translate(0,120)"/>
<path d="M0 0 C79.53 0 159.06 0 241 0 C241 59.73 241 119.46 241 181 C161.47 181 81.94 181 0 181 C0 121.27 0 61.54 0 0 Z M76 46 C76 75.37 76 104.74 76 135 C105.37 135 134.74 135 165 135 C165 105.63 165 76.26 165 46 C135.63 46 106.26 46 76 46 Z " fill="#ffffff" transform="translate(271,331)"/>
<path d="M0 0 C79.53 0 159.06 0 241 0 C241 60.06 241 120.12 241 182 C161.47 182 81.94 182 0 182 C0 121.94 0 61.88 0 0 Z M55 63 C46.90201487 74.22675211 44.78776241 85.39297356 46 99 C46.87549738 102.952104 48.19945371 106.38207988 50 110 C50.63615234 111.29357422 50.63615234 111.29357422 51.28515625 112.61328125 C57.00573937 123.11429594 65.84032391 129.88074682 77 134 C89.29947989 137.14088413 100.83994073 136.14579805 112 130 C114.00580329 128.67541292 116.00715862 127.3440093 118 126 C119.94921875 125.21875 119.94921875 125.21875 122 125 C123.71875 126.07421875 123.71875 126.07421875 125.5 127.6875 C133.45226137 134.05523256 143.98493675 136.42597929 154.0234375 135.81640625 C166.28524583 134.40382263 176.71573428 129.20650643 185 120 C193.87383873 108.46227986 196.25012394 97.28512417 195 83 C192.59378131 71.24079566 185.93835498 60.27313111 175.8359375 53.5625 C165.17929809 47.41021333 154.01994715 44.10505312 141.74609375 46.68359375 C135.19886407 48.5465009 129.67565862 51.03494006 124.0234375 54.828125 C122 56 122 56 119 56 C117.50943266 55.13673706 116.05527761 54.20985408 114.625 53.25 C94.66159433 40.98718021 69.95876352 44.56398004 55 63 Z " fill="#ffffff" transform="translate(271,120)"/>
<path d="M0 0 C134.31 0 268.62 0 407 0 C407 10.23 407 20.46 407 31 C272.69 31 138.38 31 0 31 C0 20.77 0 10.54 0 0 Z " fill="#ffffff" transform="translate(105,60)"/>
<path d="M0 0 C134.31 0 268.62 0 407 0 C407 10.23 407 20.46 407 31 C272.69 31 138.38 31 0 31 C0 20.77 0 10.54 0 0 Z " fill="#ffffff" transform="translate(0,0)"/>
<path d="M0 0 C10.23 0 20.46 0 31 0 C31 10.23 31 20.46 31 31 C20.77 31 10.54 31 0 31 C0 20.77 0 10.54 0 0 Z " fill="#ffffff" transform="translate(376,406)"/>
<path d="M0 0 C4.85901474 2.29698879 7.66907123 5.15884024 10 10 C10.80165291 15.0226009 10.59932381 18.80135239 8.3125 23.375 C4.9265818 27.21847471 2.10273817 30.03307236 -3 31 C-4.44098431 31.07766084 -5.88508629 31.10796367 -7.328125 31.09765625 C-8.12734375 31.09443359 -8.9265625 31.09121094 -9.75 31.08789062 C-10.575 31.07951172 -11.4 31.07113281 -12.25 31.0625 C-13.09046875 31.05798828 -13.9309375 31.05347656 -14.796875 31.04882812 C-16.86461401 31.03707961 -18.93231624 31.01914522 -21 31 C-21.08774066 27.79184155 -21.14063706 24.58399538 -21.1875 21.375 C-21.21263672 20.47136719 -21.23777344 19.56773437 -21.26367188 18.63671875 C-21.32195152 13.31384496 -21.02775593 9.58468255 -18 5 C-12.17098785 -0.26032804 -7.70953667 -0.77422504 0 0 Z " fill="#ffffff" transform="translate(156,271)"/>
<path d="M0 0 C5.11191636 2.32359835 8.00004965 5.79630942 10 11 C10.45849852 14.49976712 10.3818421 17.91579456 10.25 21.4375 C10.23195313 22.35982422 10.21390625 23.28214844 10.1953125 24.23242188 C10.14853601 26.48938733 10.08301871 28.74412612 10 31 C7.14524694 31.08156437 4.29286435 31.14076372 1.4375 31.1875 C0.63763672 31.21263672 -0.16222656 31.23777344 -0.98632812 31.26367188 C-7.06974987 31.33816275 -11.99732793 30.6458523 -16.7421875 26.46484375 C-20.98433329 20.74526098 -21.77428007 17.08847954 -21 10 C-16.59273899 0.84645789 -9.56780935 -1.38312594 0 0 Z " fill="#ffffff" transform="translate(96,271)"/>
<path d="M0 0 C0.97453125 0.01804687 1.9490625 0.03609375 2.953125 0.0546875 C5.34477807 0.10158266 7.73436597 0.16719093 10.125 0.25 C10.20632642 3.29221065 10.26565374 6.3322238 10.3125 9.375 C10.33763672 10.2309375 10.36277344 11.086875 10.38867188 11.96875 C10.45752386 17.93592204 9.81518363 22.30060596 5.625 26.89453125 C0.67648506 30.74767179 -2.60375513 31.76403646 -8.875 31.25 C-13.26191595 29.89136558 -16.78441712 27.99714331 -19.375 24.125 C-21.52950114 19.65248647 -21.66027209 15.0978532 -20.875 10.25 C-16.32523248 0.80048285 -9.57002892 -0.33715549 0 0 Z " fill="#ffffff" transform="translate(95.875,330.75)"/>
<path d="M0 0 C3.37470504 -0.11689626 6.7488843 -0.18747934 10.125 -0.25 C11.07632813 -0.28351563 12.02765625 -0.31703125 13.0078125 -0.3515625 C19.04418815 -0.43540105 22.39420935 0.00042899 27 4 C30.73069314 8.24527151 31.36788263 12.15360732 31.26953125 17.65234375 C30.83116145 21.47060828 29.61082696 24.17708905 27 27 C22.29905049 30.44668315 17.84584681 31.75779496 12 31 C6.7409029 29.10672504 4.20991406 26.40216785 1 22 C0.05862745 19.17588235 -0.11725382 17.47081968 -0.09765625 14.55078125 C-0.09443359 13.70322266 -0.09121094 12.85566406 -0.08789062 11.98242188 C-0.07951172 11.10134766 -0.07113281 10.22027344 -0.0625 9.3125 C-0.05798828 8.41982422 -0.05347656 7.52714844 -0.04882812 6.60742188 C-0.03704983 4.40488013 -0.02060164 2.20247401 0 0 Z " fill="#ffffff" transform="translate(135,331)"/>
<path d="M0 0 C3.77166749 3.23285785 5.81269906 6.4823314 6.57421875 11.34375 C6.82142313 17.00387795 6.10802912 20.54178361 2.1875 24.875 C-1.51239473 28.30417072 -4.3917349 29.17469749 -9.3125 29.375 C-14.23853649 29.16779901 -17.14547182 28.36314876 -20.8125 24.875 C-23.58772301 21.43859533 -25.05470667 18.25330049 -25.25 13.8125 C-24.63134876 8.24463886 -23.04736586 4.75953304 -18.875 1.0625 C-12.94625771 -3.17231592 -6.63046606 -2.65218642 0 0 Z " fill="#ffffff" transform="translate(430.8125,197.125)"/>
<path d="M0 0 C3.43671067 2.79682103 5.97768387 5.32684765 6.9296875 9.76953125 C7.5243652 15.91453418 6.85197948 19.91277473 2.9296875 24.76953125 C-0.73734068 28.25768001 -3.64427601 29.06233026 -8.5703125 29.26953125 C-13.4910776 29.06922874 -16.37041777 28.19870197 -20.0703125 24.76953125 C-24.00768315 20.41770053 -24.70454292 16.85220227 -24.45703125 11.16796875 C-23.68037507 6.35113143 -21.03789642 3.66454638 -17.5703125 0.45703125 C-12.29416892 -3.10436567 -5.52654874 -3.28464689 0 0 Z " fill="#ffffff" transform="translate(370.0703125,197.23046875)"/>
</svg>
